HIERARCHY
ROOT Hips
{
	OFFSET -0.001795 -0.223333 0.028219
	CHANNELS 6 Xposition Yposition Zposition Zrotation Yrotation Xrotation 
	JOINT LeftUpLeg
	{
		OFFSET 0.069520 -0.091406 -0.006815
		CHANNELS 3 Zrotation Yrotation Xrotation
		JOINT LeftLeg
		{
			OFFSET 0.034277 -0.375199 -0.004496
			CHANNELS 3 Zrotation Yrotation Xrotation
			JOINT LeftFoot
			{
				OFFSET -0.013596 -0.397961 -0.043693
				CHANNELS 3 Zrotation Yrotation Xrotation
				JOINT LeftToe
				{
					OFFSET 0.026358 -0.055791 0.119288
					CHANNELS 3 Zrotation Yrotation Xrotation
					End Site
					{
						OFFSET 0.000000 0.000000 0.000000
					}
				}
			}
		}
	}
	JOINT RightUpLeg
	{
		OFFSET -0.067670 -0.090522 -0.004320
		CHANNELS 3 Zrotation Yrotation Xrotation
		JOINT RightLeg
		{
			OFFSET -0.038290 -0.382569 -0.008850
			CHANNELS 3 Zrotation Yrotation Xrotation
			JOINT RightFoot
			{
				OFFSET 0.015774 -0.398415 -0.042312
				CHANNELS 3 Zrotation Yrotation Xrotation
				JOINT RightToe
				{
					OFFSET -0.025372 -0.048144 0.123348
					CHANNELS 3 Zrotation Yrotation Xrotation
					End Site
					{
						OFFSET 0.000000 0.000000 0.000000
					}
				}
			}
		}
	}
	JOINT Spine
	{
		OFFSET -0.002533 0.108963 -0.026696
		CHANNELS 3 Zrotation Yrotation Xrotation
		JOINT Spine1
		{
			OFFSET 0.005487 0.135180 0.001092
			CHANNELS 3 Zrotation Yrotation Xrotation
			JOINT Spine2
			{
				OFFSET 0.001457 0.052922 0.025425
				CHANNELS 3 Zrotation Yrotation Xrotation
				JOINT Neck
				{
					OFFSET -0.002778 0.213870 -0.042857
					CHANNELS 3 Zrotation Yrotation Xrotation
					JOINT Head
					{
						OFFSET 0.005152 0.064970 0.051349
						CHANNELS 3 Zrotation Yrotation Xrotation
						End Site
						{
							OFFSET 0.000000 0.000000 0.000000
						}
					}
				}
				JOINT LeftShoulder
				{
					OFFSET 0.078845 0.121749 -0.034090
					CHANNELS 3 Zrotation Yrotation Xrotation
					JOINT LeftArm
					{
						OFFSET 0.090977 0.030469 -0.008868
						CHANNELS 3 Zrotation Yrotation Xrotation
						JOINT LeftForeArm
						{
							OFFSET 0.259612 -0.012772 -0.027456
							CHANNELS 3 Zrotation Yrotation Xrotation
							JOINT LeftHand
							{
								OFFSET 0.249234 0.008986 -0.001171
								CHANNELS 3 Zrotation Yrotation Xrotation
								End Site
								{
									OFFSET 0.000000 0.000000 0.000000
								}
							}
						}
					}
				}
				JOINT RightShoulder
				{
					OFFSET -0.081759 0.118833 -0.038615
					CHANNELS 3 Zrotation Yrotation Xrotation
					JOINT RightArm
					{
						OFFSET -0.096012 0.032551 -0.009143
						CHANNELS 3 Zrotation Yrotation Xrotation
						JOINT RightForeArm
						{
							OFFSET -0.253742 -0.013329 -0.021401
							CHANNELS 3 Zrotation Yrotation Xrotation
							JOINT RightHand
							{
								OFFSET -0.255298 0.007772 -0.005559
								CHANNELS 3 Zrotation Yrotation Xrotation
								End Site
								{
									OFFSET 0.000000 0.000000 0.000000
								}
							}
						}
					}
				}
			}
		}
	}
}
MOTION
Frames: 7
Frame Time: 0.050000
0.000000 0.940407 0.000000 -2.121554 1.610034 7.618372 6.696460 -0.354380 -3.853225 3.962157 -0.324539 -1.278874 7.978556 17.898969 20.098056 0.000000 0.000000 0.000000 -4.043826 0.587752 -6.594222 -0.832064 0.000329 -1.878393 10.289205 10.507345 19.758734 0.000000 0.000000 0.000000 2.362715 0.230310 -5.181403 -0.362831 0.241027 -2.640016 -0.382794 0.624801 0.538278 1.308454 -0.217586 -7.861771 0.000000 0.000000 0.000000 -18.093378 3.306172 -3.927325 -54.456513 -4.164048 -4.135653 -9.009219 -16.706962 1.855801 0.000000 0.000000 0.000000 16.076515 -4.479196 -3.560822 58.740117 3.517806 -3.484449 5.485950 15.635280 1.162844 0.000000 0.000000 0.000000 
0.000120 0.939657 0.000155 -2.408967 0.143984 8.118588 6.145654 -0.325740 -3.410356 5.121412 -0.359658 -2.326520 8.820346 18.848353 20.724387 0.000000 0.000000 0.000000 -3.935729 0.663773 -7.471965 -0.733472 -0.004865 -1.743903 11.015233 11.398315 19.922240 0.000000 0.000000 0.000000 2.908826 0.242996 -5.231858 -1.364228 0.677795 -3.126461 0.639570 1.102525 0.093331 0.233978 0.483519 -7.895287 0.000000 0.000000 0.000000 -19.534579 4.957716 -4.921062 -53.711998 -3.348141 -4.388815 -9.668991 -17.366247 2.044399 0.000000 0.000000 0.000000 15.193190 -5.091760 -3.866586 59.166454 2.591185 -3.910038 6.330225 16.459387 1.318052 0.000000 0.000000 0.000000 
0.000190 0.939522 0.000044 -2.190905 0.752466 7.858305 6.032462 -0.329660 -3.421861 5.045791 -0.367027 -2.097993 8.470681 18.455326 20.400091 0.000000 0.000000 0.000000 -4.035533 0.649774 -7.416914 -0.889881 0.038944 -1.136770 10.607196 11.079142 19.476449 0.000000 0.000000 0.000000 2.388189 0.197817 -4.598275 -0.588169 0.377879 -4.583227 0.000084 0.452778 0.479624 0.167941 0.497291 -7.583547 0.000000 0.000000 0.000000 -18.738469 4.660371 -4.583609 -54.388669 -2.794989 -4.747377 -8.984571 -17.030041 1.910411 0.000000 0.000000 0.000000 16.358848 -4.193806 -3.599329 57.784442 2.346184 -3.987587 6.149016 16.252955 1.276685 0.000000 0.000000 0.000000 
0.000231 0.939293 -0.000033 -2.548120 0.238434 8.151897 6.212054 -0.340886 -3.767490 5.291908 -0.414974 -1.808855 8.837668 18.879678 20.513985 0.000000 0.000000 0.000000 -4.003737 0.723498 -8.413174 -0.346463 0.030636 -0.119092 10.860458 11.365786 19.592013 0.000000 0.000000 0.000000 2.508632 0.192791 -4.505873 -1.228217 0.642029 -4.712612 1.296323 -0.410513 -0.343101 -0.652997 0.903932 -6.299504 0.000000 0.000000 0.000000 -18.597170 5.912170 -4.915757 -55.202689 -2.503702 -4.897814 -8.387508 -16.824988 1.839572 0.000000 0.000000 0.000000 15.023137 -3.927460 -3.565936 57.684924 2.069077 -4.037481 7.601116 16.668523 1.448212 0.000000 0.000000 0.000000 
0.000146 0.939622 -0.000160 -2.441989 0.674770 8.120338 6.003480 -0.353087 -3.958110 5.572539 -0.451261 -1.634631 8.567341 18.578203 20.476930 0.000000 0.000000 0.000000 -3.932435 0.717515 -8.356903 -0.599735 0.060782 -0.034494 10.625323 11.079636 19.518510 0.000000 0.000000 0.000000 2.195977 0.192266 -4.542002 -0.717642 0.433328 -4.688084 1.068445 -0.765343 -0.345811 -0.914243 1.105188 -6.668945 0.000000 0.000000 0.000000 -18.436063 5.786052 -4.812051 -55.277237 -2.542637 -4.889443 -8.550506 -16.532449 1.830828 0.000000 0.000000 0.000000 14.607015 -4.109278 -3.597020 57.755078 2.283214 -3.944649 8.167484 16.620871 1.512778 0.000000 0.000000 0.000000 
0.000099 0.940113 -0.000263 -2.495398 0.477353 8.379543 5.849677 -0.361229 -4.147520 5.899748 -0.474153 -1.728102 8.650454 18.675062 20.793975 0.000000 0.000000 0.000000 -3.960995 0.737319 -8.612300 -0.477124 0.041919 -0.170468 10.785408 11.120907 19.846377 0.000000 0.000000 0.000000 2.052899 0.199339 -4.678981 -0.741542 0.448220 -5.058731 1.417712 -0.831263 -0.151250 -0.709041 0.939418 -6.453429 0.000000 0.000000 0.000000 -18.333577 6.196108 -4.950876 -55.434342 -2.313397 -5.026331 -8.883667 -16.589137 1.894891 0.000000 0.000000 0.000000 14.026726 -3.990659 -3.487548 57.872316 2.385384 -3.931295 8.460784 16.418814 1.522166 0.000000 0.000000 0.000000 
0.000043 0.940439 -0.000364 -2.395435 0.636137 8.430909 5.636627 -0.370030 -4.292224 6.124861 -0.498811 -1.666420 8.530381 18.544878 20.887806 0.000000 0.000000 0.000000 -3.816347 0.749115 -8.736338 -0.899293 0.093020 -0.004817 10.675961 10.997024 19.783284 0.000000 0.000000 0.000000 1.870497 0.198960 -4.703574 -0.663266 0.416382 -4.991486 1.322823 -1.015469 -0.056161 -0.426823 0.764033 -6.841633 0.000000 0.000000 0.000000 -18.260439 6.239728 -4.944769 -55.032104 -2.108304 -5.089779 -9.668908 -16.897199 2.049773 0.000000 0.000000 0.000000 13.888457 -3.731128 -3.351784 57.890346 2.422415 -3.925865 8.339657 16.250027 1.488556 0.000000 0.000000 0.000000 
